{"glyphs":{"0":{"ha":503,"x_min":-3,"x_max":576,"o":"m -3 120 l 144 868 l 431 950 l 576 844 l 454 78 l 149 -32 l -3 120 m 163 237 l 197 142 l 332 211 l 418 711 l 415 902 l 265 727 l 163 237 z "},"1":{"ha":248,"x_min":-98,"x_max":358,"o":"m 236 984 l 358 886 l 187 -176 l 71 163 l 201 810 l -98 801 l 236 984 z "},"2":{"ha":457,"x_min":5,"x_max":741,"o":"m 741 -89 l 50 16 l 14 193 l 451 800 l 5 966 l 606 913 l 620 779 l 184 136 l 741 -89 z "},"3":{"ha":732,"x_min":-220,"x_max":808,"o":"m 404 280 l 209 453 l 600 736 l 354 776 l 343 731 l 149 722 l 199 965 l 808 840 l 808 720 l 402 475 l 751 361 l 698 223 l -220 -159 l 404 280 z "},"4":{"ha":622,"x_min":-71,"x_max":829,"o":"m 394 145 l 532 723 l 125 136 l 394 145 m 431 55 l 304 -231 l 369 39 l 99 -32 l -71 188 l 588 985 l 714 699 l 471 148 l 829 159 l 431 55 z "},"5":{"ha":489,"x_min":-159,"x_max":798,"o":"m 798 1021 l 234 748 l 456 288 l 441 100 l -159 -89 l 287 213 l 64 691 l 100 868 l 798 1021 z "},"6":{"ha":585,"x_min":22,"x_max":891,"o":"m 219 459 l 176 238 l 321 81 l 457 521 l 219 459 m 284 814 l 230 515 l 507 705 l 602 538 l 500 99 l 266 -96 l 22 287 l 171 963 l 891 1084 l 284 814 z "},"7":{"ha":457,"x_min":-56,"x_max":680,"o":"m 14 193 l 511 819 l 65 985 l 666 931 l 680 798 l -56 -193 l 14 193 z "},"8":{"ha":457,"x_min":5,"x_max":620,"o":"m 561 -60 l 50 16 l 14 193 l 243 501 l 111 927 l 5 966 l 606 913 l 620 779 l 347 390 l 561 -60 m 271 540 l 451 800 l 114 926 l 271 540 m 308 333 l 184 136 l 363 68 l 308 333 z "},"9":{"ha":585,"x_min":-251,"x_max":618,"o":"m 421 463 l 465 684 l 319 840 l 183 401 l 421 463 m 356 107 l 410 407 l 134 216 l 38 383 l 140 823 l 374 1017 l 618 635 l 469 -41 l -251 -163 l 356 107 z "},"\u0000":{"ha":0,"x_min":0,"x_max":0,"o":""},"\u001d":{"ha":0,"x_min":0,"x_max":0,"o":""}," ":{"ha":269,"x_min":0,"x_max":0,"o":""}," ":{"ha":269,"x_min":0,"x_max":0,"o":""},"!":{"ha":248,"x_min":-14,"x_max":372,"o":"m 51 382 l 182 1062 l 372 970 l 228 296 l 51 382 m 207 199 l 158 -31 l -14 46 l 31 277 l 207 199 z "},"\"":{"ha":452,"x_min":106,"x_max":547,"o":"m 311 948 l 135 451 l 106 961 l 344 1042 l 316 963 l 547 1042 l 338 451 l 311 948 z "},"#":{"ha":943,"x_min":-460,"x_max":965,"o":"m 188 326 l 237 572 l -50 578 l 248 631 l 336 1069 l 512 971 l 448 667 l 610 696 l 712 1155 l 828 829 l 808 731 l 965 759 l 919 557 l 774 561 l 743 400 l 894 420 l 848 219 l 707 221 l 649 -70 l 466 28 l 508 224 l 356 227 l 273 -169 l 157 170 l 169 230 l -460 240 l 188 326 m 427 568 l 382 352 l 541 374 l 582 565 l 427 568 z "},"$":{"ha":953,"x_min":-75,"x_max":970,"o":"m 407 282 l 327 60 l 652 234 l 407 282 m 399 583 l 195 486 l 378 454 l 399 583 m 610 850 l 913 992 l 970 793 l 832 712 l 800 772 l 538 648 l 463 439 l 939 358 l 960 156 l -75 -156 l 313 52 l 352 293 l -71 376 l 17 570 l 428 764 l 480 1084 l 650 960 l 610 850 z "},"%":{"ha":939,"x_min":-184,"x_max":1222,"o":"m 857 975 l 1222 992 l -184 -231 l 857 975 m 115 662 l 246 831 l 451 691 l 293 515 l 115 662 m 492 195 l 659 330 l 825 146 l 631 11 l 492 195 z "},"&":{"ha":732,"x_min":28,"x_max":1056,"o":"m 551 277 l 237 144 l 482 104 l 551 277 m 684 465 l 871 413 l 672 328 l 637 -85 l 28 41 l 28 161 l 458 381 l 85 519 l 138 657 l 1056 1040 l 357 554 l 632 479 l 699 646 l 684 465 z "},"'":{"ha":235,"x_min":106,"x_max":344,"o":"m 106 961 l 344 1042 l 135 451 l 106 961 z "},"(":{"ha":514,"x_min":-57,"x_max":882,"o":"m -57 -92 l 241 978 l 411 1102 l 882 971 l 409 956 l 122 -94 l 634 -71 l 127 -277 l -57 -92 z "},")":{"ha":514,"x_min":-532,"x_max":408,"o":"m 408 932 l 110 -138 l -60 -262 l -532 -132 l -58 -116 l 229 933 l -283 911 l 223 1116 l 408 932 z "},"*":{"ha":657,"x_min":44,"x_max":842,"o":"m 270 693 l 73 836 l 286 960 l 366 829 l 448 1048 l 431 814 l 608 946 l 842 843 l 452 687 l 590 460 l 414 589 l 402 432 l 232 475 l 288 621 l 44 524 l 270 693 z "},"+":{"ha":643,"x_min":-76,"x_max":576,"o":"m 248 401 l -76 408 l 237 507 l 222 642 l 469 737 l 398 528 l 576 393 l 355 398 l 275 163 l 248 401 z "},",":{"ha":235,"x_min":-3,"x_max":234,"o":"m -3 157 l 234 239 l 39 -282 l -3 157 z "},"-":{"ha":643,"x_min":-76,"x_max":576,"o":"m -76 408 l 370 549 l 576 393 l -76 408 z "},"­":{"ha":643,"x_min":-76,"x_max":576,"o":"m -76 408 l 370 549 l 576 393 l -76 408 z "},".":{"ha":340,"x_min":-11,"x_max":322,"o":"m -11 142 l 156 276 l 322 92 l 127 -43 l -11 142 z "},"/":{"ha":939,"x_min":-184,"x_max":1222,"o":"m 857 975 l 1222 992 l -184 -231 l 857 975 z "},":":{"ha":340,"x_min":-11,"x_max":390,"o":"m -11 142 l 156 276 l 322 92 l 127 -43 l -11 142 m 57 560 l 224 694 l 390 511 l 195 376 l 57 560 z "},";":{"ha":348,"x_min":4,"x_max":397,"o":"m 4 157 l 241 239 l 47 -282 l 4 157 m 64 560 l 231 694 l 397 511 l 203 376 l 64 560 z "},";":{"ha":348,"x_min":4,"x_max":397,"o":"m 4 157 l 241 239 l 47 -282 l 4 157 m 64 560 l 231 694 l 397 511 l 203 376 l 64 560 z "},"<":{"ha":514,"x_min":-57,"x_max":882,"o":"m -57 -92 l 241 978 l 411 1102 l 882 971 l 409 956 l 122 -94 l 634 -71 l 127 -277 l -57 -92 z "},"=":{"ha":643,"x_min":-90,"x_max":622,"o":"m -30 492 l 416 634 l 622 478 l -30 492 m -90 336 l 356 478 l 562 322 l -90 336 z "},">":{"ha":514,"x_min":-532,"x_max":408,"o":"m 408 932 l 110 -138 l -60 -262 l -532 -132 l -58 -116 l 229 933 l -283 911 l 223 1116 l 408 932 z "},"?":{"ha":1126,"x_min":57,"x_max":1274,"o":"m 160 784 l 182 889 l 370 964 l 1245 765 l 1274 591 l 83 269 l 1008 659 l 324 793 l 317 725 l 160 784 m 57 142 l 224 276 l 390 92 l 195 -43 l 57 142 z "},"@":{"ha":517,"x_min":-42,"x_max":556,"o":"m 362 363 l 138 205 l 138 127 l 291 99 l 362 363 m 457 69 l 511 60 l 453 50 l 443 -1 l 244 -75 l 270 20 l 18 -22 l 7 311 l 370 393 l 406 526 l -42 754 l 460 680 l 556 549 l 457 69 z "},"A":{"ha":1044,"x_min":-35,"x_max":1144,"o":"m 905 218 l 787 688 l 258 181 l 905 218 m 906 212 l 121 -32 l -35 138 l 859 971 l 1144 67 l 1017 -227 l 906 212 z "},"B":{"ha":1204,"x_min":-220,"x_max":1282,"o":"m 354 776 l 277 453 l 939 723 l 354 776 m 272 431 l 171 7 l 811 280 l 272 431 m 134 -9 l 0 0 l 199 965 l 1282 840 l 1282 720 l 606 475 l 1226 361 l 1173 223 l -220 -159 l 134 -9 z "},"C":{"ha":992,"x_min":-71,"x_max":1304,"o":"m 1063 985 l 1137 783 l 992 698 l 953 730 l 241 177 l 1304 159 l 99 -32 l -71 188 l 1063 985 z "},"D":{"ha":992,"x_min":-141,"x_max":1234,"o":"m 220 730 l 235 209 l 922 719 l 220 730 m 187 789 l 214 921 l 218 793 l 1064 928 l 1234 708 l -6 -153 l 176 731 l -141 736 l 187 789 z "},"E":{"ha":949,"x_min":-71,"x_max":1304,"o":"m 348 285 l 1304 -248 l 99 172 l -71 391 l 1063 985 l 1137 783 l 992 698 l 953 757 l 351 434 l 946 372 l 348 285 z "},"F":{"ha":620,"x_min":10,"x_max":1279,"o":"m 119 170 l 21 -266 l 10 814 l 1279 1013 l 223 637 l 158 347 l 900 542 l 119 170 z "},"G":{"ha":1017,"x_min":-71,"x_max":1198,"o":"m 902 123 l 99 -32 l -71 188 l 1063 985 l 1137 783 l 992 698 l 953 730 l 241 177 l 905 142 l 928 301 l 680 333 l 1198 503 l 857 -180 l 902 123 z "},"H":{"ha":943,"x_min":-443,"x_max":970,"o":"m 223 317 l 119 -176 l 3 163 l 35 321 l -443 333 l 51 401 l 182 1062 l 359 964 l 246 428 l 707 492 l 854 1172 l 970 833 l 791 -66 l 608 32 l 668 307 l 223 317 z "},"I":{"ha":248,"x_min":3,"x_max":372,"o":"m 119 -176 l 3 163 l 182 1062 l 372 970 l 119 -176 z "},"J":{"ha":790,"x_min":-376,"x_max":886,"o":"m -376 255 l 556 167 l 886 999 l 730 43 l 517 -50 l -376 255 z "},"K":{"ha":1152,"x_min":12,"x_max":1404,"o":"m 292 333 l 1386 966 l 1202 641 l 618 358 l 1404 -96 l 290 316 l 235 -103 l 12 57 l 189 889 l 376 964 l 292 333 z "},"L":{"ha":581,"x_min":-9,"x_max":1377,"o":"m 247 89 l 1377 -220 l 214 -103 l -9 57 l 366 889 l 654 1038 l 247 89 z "},"M":{"ha":994,"x_min":-9,"x_max":1189,"o":"m 144 -188 l -9 3 l 176 811 l 391 970 l 643 486 l 1189 1158 l 856 -241 l 895 581 l 533 106 l 310 613 l 144 -188 z "},"N":{"ha":943,"x_min":3,"x_max":970,"o":"m 296 994 l 646 208 l 854 1172 l 970 833 l 777 -180 l 273 578 l 119 -176 l 3 163 l 173 939 l 296 994 z "},"O":{"ha":762,"x_min":-3,"x_max":975,"o":"m 241 208 l 528 101 l 755 696 l 701 779 l 351 715 l 241 208 m -3 157 l 212 840 l 753 943 l 975 810 l 696 105 l 229 -32 l -3 157 z "},"P":{"ha":1126,"x_min":5,"x_max":1274,"o":"m 277 351 l 1008 659 l 324 793 l 277 351 m 273 321 l 228 -103 l 5 57 l 182 889 l 370 964 l 1245 765 l 1274 591 l 273 321 z "},"Q":{"ha":992,"x_min":-71,"x_max":1304,"o":"m 890 166 l 953 730 l 241 177 l 890 166 m 956 104 l 847 -231 l 882 92 l 99 -32 l -71 188 l 1063 985 l 1155 712 l 976 165 l 1304 159 l 956 104 z "},"R":{"ha":1226,"x_min":5,"x_max":1634,"o":"m 274 325 l 1008 659 l 324 793 l 274 325 m 273 320 l 228 -103 l 5 57 l 182 889 l 370 964 l 1245 765 l 1274 591 l 611 358 l 1634 -153 l 273 320 z "},"S":{"ha":953,"x_min":-75,"x_max":970,"o":"m 970 793 l 832 712 l 800 772 l 195 486 l 939 358 l 960 156 l -75 -156 l 652 234 l -71 376 l 17 570 l 913 992 l 970 793 z "},"T":{"ha":620,"x_min":-323,"x_max":1279,"o":"m 408 727 l 92 623 l -323 758 l 1279 1013 l 634 801 l 373 -198 l 408 727 z "},"U":{"ha":762,"x_min":24,"x_max":844,"o":"m 683 105 l 229 -32 l 24 157 l 237 907 l 450 1044 l 269 208 l 500 162 l 844 1008 l 683 105 z "},"V":{"ha":987,"x_min":28,"x_max":1537,"o":"m 28 960 l 500 255 l 1179 960 l 1537 1105 l 443 -113 l 28 960 z "},"W":{"ha":1387,"x_min":28,"x_max":1944,"o":"m 728 203 l 443 -113 l 28 960 l 500 255 l 648 409 l 357 1127 l 740 505 l 1179 960 l 1417 967 l 850 340 l 907 255 l 1586 960 l 1944 1105 l 850 -113 l 728 203 z "},"X":{"ha":939,"x_min":-184,"x_max":1222,"o":"m 422 471 l -14 953 l 266 981 l 515 578 l 857 975 l 1222 992 l 595 448 l 918 -75 l 511 374 l -184 -231 l 422 471 z "},"Y":{"ha":723,"x_min":-32,"x_max":1445,"o":"m -32 868 l 549 553 l 1166 1056 l 1445 978 l 602 382 l 443 7 l 99 -205 l 411 393 l -32 868 z "},"Z":{"ha":762,"x_min":-151,"x_max":1267,"o":"m -9 922 l 1153 967 l 338 159 l 1267 227 l -151 -142 l 734 810 l -9 922 z "},"[":{"ha":514,"x_min":-57,"x_max":882,"o":"m -57 -92 l 241 978 l 411 1102 l 882 971 l 409 956 l 122 -94 l 634 -71 l 127 -277 l -57 -92 z "},"\\":{"ha":939,"x_min":-14,"x_max":918,"o":"m -14 953 l 266 981 l 918 -75 l -14 953 z "},"]":{"ha":514,"x_min":-532,"x_max":408,"o":"m 408 932 l 110 -138 l -60 -262 l -532 -132 l -58 -116 l 229 933 l -283 911 l 223 1116 l 408 932 z "},"^":{"ha":235,"x_min":106,"x_max":344,"o":"m 106 961 l 344 1042 l 135 451 l 106 961 z "},"_":{"ha":694,"x_min":-2,"x_max":845,"o":"m -2 125 l 845 113 l 41 -117 l -2 125 z "},"`":{"ha":235,"x_min":106,"x_max":344,"o":"m 106 961 l 344 1042 l 135 451 l 106 961 z "},"a":{"ha":517,"x_min":-42,"x_max":556,"o":"m 362 363 l 138 205 l 138 127 l 291 99 l 362 363 m 457 69 l 511 60 l 453 50 l 443 -1 l 244 -75 l 270 20 l 18 -22 l 7 311 l 370 393 l 406 526 l -42 754 l 460 680 l 556 549 l 457 69 z "},"b":{"ha":585,"x_min":22,"x_max":602,"o":"m 219 459 l 176 238 l 321 81 l 457 521 l 219 459 m 22 287 l 196 1062 l 318 964 l 230 515 l 507 705 l 602 538 l 500 99 l 266 -96 l 22 287 z "},"c":{"ha":514,"x_min":3,"x_max":751,"o":"m 3 138 l 110 556 l 280 680 l 751 549 l 278 534 l 182 137 l 620 266 l 188 -46 l 3 138 z "},"d":{"ha":627,"x_min":20,"x_max":792,"o":"m 404 210 l 447 431 l 301 587 l 165 148 l 404 210 m 536 60 l 351 -82 l 393 154 l 116 -37 l 20 130 l 123 570 l 357 764 l 485 560 l 573 956 l 792 1144 l 536 60 z "},"e":{"ha":551,"x_min":20,"x_max":618,"o":"m 214 313 l 438 471 l 438 549 l 286 577 l 214 313 m 206 283 l 170 150 l 618 -78 l 116 -3 l 20 127 l 134 677 l 559 698 l 569 365 l 206 283 z "},"f":{"ha":386,"x_min":-262,"x_max":1059,"o":"m 277 380 l 187 -176 l 71 163 l 105 334 l -262 238 l 122 418 l 233 949 l 1059 1116 l 366 830 l 297 499 l 663 670 l 521 444 l 277 380 z "},"g":{"ha":585,"x_min":-181,"x_max":704,"o":"m 404 210 l 447 431 l 301 587 l 165 148 l 404 210 m 358 -51 l 393 154 l 116 -37 l 20 130 l 123 570 l 357 764 l 485 560 l 520 715 l 704 772 l 490 -138 l -181 -258 l 358 -51 z "},"h":{"ha":585,"x_min":3,"x_max":602,"o":"m 215 458 l 130 -24 l 3 163 l 182 1062 l 304 964 l 224 511 l 500 705 l 602 538 l 475 -32 l 241 -227 l 457 521 l 215 458 z "},"i":{"ha":241,"x_min":24,"x_max":314,"o":"m 147 760 l 192 984 l 314 886 l 293 757 l 147 760 m 283 694 l 140 -176 l 24 163 l 130 673 l 283 694 z "},"j":{"ha":234,"x_min":-446,"x_max":314,"o":"m 147 760 l 192 984 l 314 886 l 293 757 l 147 760 m 6 24 l 130 673 l 283 694 l 154 -81 l -446 -199 l 6 24 z "},"k":{"ha":581,"x_min":3,"x_max":814,"o":"m 181 265 l 130 -24 l 3 163 l 182 1062 l 304 964 l 211 435 l 462 687 l 814 772 l 269 319 l 804 -167 l 181 265 z "},"l":{"ha":248,"x_min":3,"x_max":304,"o":"m 119 -176 l 3 163 l 182 1062 l 304 964 l 119 -176 z "},"m":{"ha":857,"x_min":31,"x_max":914,"o":"m 255 511 l 157 -24 l 31 163 l 163 775 l 286 677 l 269 587 l 486 741 l 589 591 l 805 744 l 914 584 l 741 -245 l 620 10 l 755 566 l 581 517 l 445 -75 l 330 180 l 437 563 l 255 511 z "},"n":{"ha":585,"x_min":24,"x_max":636,"o":"m 246 497 l 151 -24 l 24 163 l 157 775 l 279 677 l 255 549 l 527 741 l 636 581 l 463 -248 l 342 7 l 477 563 l 246 497 z "},"o":{"ha":503,"x_min":-3,"x_max":547,"o":"m 157 210 l 191 115 l 326 184 l 404 553 l 368 620 l 250 569 l 157 210 m -3 120 l 115 669 l 402 751 l 547 645 l 454 78 l 149 -32 l -3 120 z "},"p":{"ha":610,"x_min":-7,"x_max":677,"o":"m 222 263 l 495 512 l 485 567 l 275 564 l 222 263 m 217 235 l 133 -235 l -7 3 l 170 705 l 640 691 l 677 475 l 217 235 z "},"q":{"ha":585,"x_min":20,"x_max":704,"o":"m 404 210 l 447 431 l 301 587 l 165 148 l 404 210 m 490 -138 l 304 -281 l 393 154 l 116 -37 l 20 130 l 123 570 l 357 764 l 485 560 l 520 715 l 704 772 l 490 -138 z "},"r":{"ha":393,"x_min":3,"x_max":548,"o":"m 229 506 l 102 -218 l 3 163 l 136 775 l 258 677 l 239 570 l 439 741 l 548 581 l 372 422 l 389 563 l 229 506 z "},"s":{"ha":489,"x_min":-159,"x_max":755,"o":"m 755 790 l 191 517 l 456 288 l 441 100 l -159 -89 l 287 213 l 21 460 l 57 637 l 755 790 z "},"t":{"ha":376,"x_min":-174,"x_max":751,"o":"m 320 644 l 187 -176 l 71 163 l 159 601 l -174 514 l 174 676 l 250 1062 l 372 964 l 338 753 l 751 946 l 610 720 l 320 644 z "},"u":{"ha":591,"x_min":43,"x_max":649,"o":"m 427 208 l 522 731 l 649 545 l 516 -68 l 394 31 l 416 153 l 153 -33 l 43 127 l 216 956 l 338 701 l 202 144 l 427 208 z "},"v":{"ha":556,"x_min":30,"x_max":615,"o":"m 393 210 l 488 731 l 615 545 l 519 191 l 139 -33 l 30 127 l 203 956 l 324 701 l 189 144 l 393 210 z "},"w":{"ha":865,"x_min":9,"x_max":922,"o":"m 423 125 l 119 -33 l 9 127 l 182 956 l 304 701 l 168 144 l 359 210 l 468 731 l 595 545 l 503 205 l 564 75 l 656 163 l 766 712 l 922 549 l 808 71 l 589 -57 l 423 125 z "},"x":{"ha":507,"x_min":7,"x_max":723,"o":"m 230 294 l 7 666 l 226 694 l 309 439 l 443 688 l 723 808 l 345 328 l 507 -167 l 269 230 l 35 -67 l 230 294 z "},"y":{"ha":553,"x_min":20,"x_max":581,"o":"m 381 282 l 454 690 l 581 503 l 422 -272 l 300 -174 l 370 216 l 123 42 l 20 209 l 109 698 l 343 892 l 165 227 l 381 282 z "},"z":{"ha":457,"x_min":-105,"x_max":741,"o":"m 741 -89 l 50 16 l 14 193 l 341 556 l -105 722 l 496 669 l 510 535 l 184 136 l 741 -89 z "},"{":{"ha":514,"x_min":-275,"x_max":882,"o":"m 124 559 l 241 978 l 411 1102 l 882 971 l 409 956 l 122 -94 l 634 -71 l 127 -277 l -57 -92 l 88 429 l -275 556 l 124 559 z "},"|":{"ha":248,"x_min":3,"x_max":372,"o":"m 99 -176 l 3 163 l 210 1062 l 372 970 l 99 -176 z "},"}":{"ha":514,"x_min":-532,"x_max":622,"o":"m 238 323 l 110 -138 l -60 -262 l -532 -132 l -58 -116 l 229 933 l -283 911 l 223 1116 l 408 932 l 273 449 l 622 326 l 238 323 z "},"~":{"ha":643,"x_min":-76,"x_max":576,"o":"m -76 408 l 370 549 l 576 393 l -76 408 z "}}}
